<svg id="Layer" enable-background="new 0 0 512 512" height="512" viewBox="0 0 512 512" width="512" xmlns="http://www.w3.org/2000/svg"><path d="m144 256c0 61.757 50.243 112 112 112s112-50.243 112-112-50.243-112-112-112-112 50.243-112 112zm112-64c35.29 0 64 28.71 64 64s-28.71 64-64 64-64-28.71-64-64 28.71-64 64-64z"/><path d="m280 72v-48c0-13.255-10.745-24-24-24s-24 10.745-24 24v48c0 13.255 10.745 24 24 24s24-10.745 24-24z"/><path d="m108.922 74.98c-9.373-9.372-24.568-9.372-33.941 0-9.373 9.373-9.373 24.569 0 33.941l33.941 33.941c4.687 4.686 10.829 7.029 16.971 7.029s12.284-2.343 16.971-7.029c9.373-9.373 9.373-24.569 0-33.941z"/><path d="m0 256c0 13.255 10.745 24 24 24h48c13.255 0 24-10.745 24-24s-10.745-24-24-24h-48c-13.255 0-24 10.745-24 24z"/><path d="m108.922 369.137-33.942 33.941c-9.373 9.373-9.373 24.569 0 33.941 4.687 4.686 10.829 7.029 16.971 7.029s12.284-2.343 16.971-7.029l33.941-33.941c9.373-9.373 9.373-24.569 0-33.941s-24.568-9.372-33.941 0z"/><path d="m232 440v48c0 13.255 10.745 24 24 24s24-10.745 24-24v-48c0-13.255-10.745-24-24-24s-24 10.745-24 24z"/><path d="m369.137 369.137c-9.373 9.373-9.373 24.569 0 33.941l33.941 33.941c4.687 4.686 10.829 7.029 16.971 7.029s12.284-2.343 16.971-7.029c9.373-9.373 9.373-24.569 0-33.941l-33.941-33.941c-9.374-9.372-24.569-9.372-33.942 0z"/><path d="m488 232h-48c-13.255 0-24 10.745-24 24s10.745 24 24 24h48c13.255 0 24-10.745 24-24s-10.745-24-24-24z"/><path d="m437.02 74.98c-9.373-9.372-24.568-9.372-33.941 0l-33.941 33.941c-9.373 9.373-9.373 24.569 0 33.941 4.687 4.686 10.829 7.029 16.971 7.029s12.284-2.343 16.971-7.029l33.941-33.941c9.371-9.372 9.371-24.568-.001-33.941z"/></svg>